<svg xmlns="http://www.w3.org/2000/svg" width="13.521" height="26.766" viewBox="0 0 13.521 26.766">
  <path id="facebook_1_" data-name="facebook (1)" d="M127.114,14.256h2.934V26.334a.432.432,0,0,0,.432.432h4.975a.432.432,0,0,0,.432-.432V14.313h3.373a.432.432,0,0,0,.429-.382l.512-4.447A.432.432,0,0,0,139.771,9h-3.885V6.215c0-.84.452-1.266,1.345-1.266h2.54a.432.432,0,0,0,.432-.432V.435A.432.432,0,0,0,139.771,0h-3.5c-.025,0-.079,0-.16,0a6.708,6.708,0,0,0-4.387,1.654,4.6,4.6,0,0,0-1.53,4.089V9h-3.08a.432.432,0,0,0-.432.432v4.39A.432.432,0,0,0,127.114,14.256Z" transform="translate(-126.682)" fill="#fff"/>
</svg>
