<svg xmlns="http://www.w3.org/2000/svg" width="236" height="172.768" viewBox="0 0 236 172.768"><defs><style>.a{fill:#f2f2f2;opacity:0.52;}.b{fill:#0800ff;}.c{fill:#183651;}.d{fill:#fff;}.e{fill:#e1e6e8;}.f{fill:#8c8c8c;}.g{fill:rgba(8,0,255,0.27);}.h{fill:rgba(255,179,6,0.36);}</style></defs><g transform="translate(-944 -880.159)"><path class="a" d="M210.379,76.757h-9.97c9.717-3.165,16.918-11.64,16.918-22.157a23,23,0,0,0-22.853-22.948H158.366a6.33,6.33,0,0,1,0-12.661h13.808a9.5,9.5,0,0,0,0-18.991H27.072a25.322,25.322,0,0,0,0,50.644H48.9a7.122,7.122,0,0,1,0,14.244H34.787a32.839,32.839,0,0,0,0,65.679H56.334c.886.087,1.788,0,2.7,0H210.379a27.367,27.367,0,0,0,27.371-26.984C237.687,88.69,225.287,76.757,210.379,76.757Z" transform="translate(942.25 880.286)"/><g transform="translate(979 880.159)"><path class="b" d="M169.675,7.877H16.1A8.08,8.08,0,0,0,7.877,16.1V118.393H177.9V16.1A8.08,8.08,0,0,0,169.675,7.877Z" transform="translate(-5.135 -5.135)"/><path class="c" d="M167.368,116H2.657A2.551,2.551,0,0,1,0,113.258V10.969A10.834,10.834,0,0,1,10.627,0H159.4a10.834,10.834,0,0,1,10.627,10.969V113.258A2.552,2.552,0,0,1,167.368,116ZM5.313,110.516h159.4V10.969A5.417,5.417,0,0,0,159.4,5.485H10.627a5.417,5.417,0,0,0-5.313,5.485Z" transform="translate(2.742)"/><rect class="d" width="148.086" height="88.578" transform="translate(13.712 13.712)"/><path class="d" d="M219.988,424.619H165.415l10.7-19.745h32.908Z" transform="translate(-107.826 -263.918)"/><path class="c" d="M214.6,422.741H160.024a2.88,2.88,0,0,1-2.468-1.371,2.492,2.492,0,0,1,0-2.742l10.7-19.47a2.879,2.879,0,0,1,2.468-1.371h32.908a2.879,2.879,0,0,1,2.468,1.371l10.7,19.2a3.9,3.9,0,0,1,.548,1.645A2.949,2.949,0,0,1,214.6,422.741Zm-49.91-5.485h45.248l-7.678-13.986H172.365Z" transform="translate(-102.435 -259.298)"/><path class="e" d="M7.877,325.317v19.471a8.08,8.08,0,0,0,8.227,8.227H169.675a8.08,8.08,0,0,0,8.227-8.227V325.317Z" transform="translate(-5.135 -212.059)"/><g transform="translate(62.799 121.76)"><circle class="f" cx="5.485" cy="5.485" r="5.485"/><circle class="f" cx="5.485" cy="5.485" r="5.485" transform="translate(19.471)"/><circle class="f" cx="5.485" cy="5.485" r="5.485" transform="translate(38.941)"/></g><path class="g" d="M187.471,156.751,162.242,176.5l-24.133-12.341-28.52,14.26L71.47,171.559,39.385,185.271v19.2H187.471Z" transform="translate(-25.673 -102.178)"/><g transform="translate(149.731 58.138) rotate(180)"><path class="h" d="M88.3,94.523H78.156v12.889H74.043l9.05,12.34,9.05-12.34H88.3Z" transform="translate(-74.043 -80.811)"/><path class="h" d="M189.641,78.769h-9.872V91.658h-4.114L184.7,104l9.05-12.34h-4.113Z" transform="translate(-140.279 -70.542)"/><path class="h" d="M290.466,63.015h-9.872V75.9H276.48l9.05,12.34,9.05-12.34h-4.114Z" transform="translate(-206.002 -60.273)"/><path class="h" d="M392.078,55.138H381.931V68.027h-3.839l9.05,12.34,9.05-12.34h-4.113Z" transform="translate(-272.238 -55.138)"/></g><g transform="translate(27.423 90.497)"><rect class="c" width="5.485" height="5.485" transform="translate(23.036)"/><rect class="c" width="5.485" height="5.485" transform="translate(69.107)"/><rect class="c" width="5.485" height="5.485" transform="translate(92.143)"/><rect class="c" width="5.485" height="5.485"/><rect class="c" width="5.485" height="5.485" transform="translate(46.071)"/><rect class="c" width="5.485" height="5.485" transform="translate(115.178)"/></g><path class="e" d="M196.415,461.588h-72.4a8.08,8.08,0,0,0-8.227,8.227v3.839h89.126v-3.839A8.488,8.488,0,0,0,196.415,461.588Z" transform="translate(-75.479 -300.887)"/></g></g></svg>