<svg xmlns="http://www.w3.org/2000/svg" xmlns:xlink="http://www.w3.org/1999/xlink" width="245.111" height="178.487" viewBox="0 0 245.111 178.487"><defs><style>.a,.q,.r{fill:none;}.b{fill:#f2f2f2;}.c{fill:#1d1d5a;}.d{fill:#0800ff;}.e{fill:#f7c779;}.f,.h{fill:#2dc27a;}.g{fill:#dbdbdb;}.h{opacity:0.1;}.i{fill:url(#a);}.j{fill:url(#b);}.k,.q{opacity:0.5;}.k{fill:url(#c);}.l,.n,.o,.s,.t{fill:#fff;}.m{fill:#8c8c8c;}.n{opacity:0.3;}.o{opacity:0.6;}.p,.t{opacity:0.2;}.q{stroke:#f4f4f4;}.q,.r,.s{stroke-miterlimit:10;}.r,.s{stroke:#ffb306;}.r{stroke-width:3px;}.s{stroke-width:2px;}.u{opacity:0.07;}.v{fill:#f9d8a1;}.w{clip-path:url(#d);}</style><linearGradient id="a" x1="91.212" y1="-9.98" x2="93.586" y2="-9.98" gradientUnits="objectBoundingBox"><stop offset="0" stop-color="#f7c779"/><stop offset="1" stop-color="#c68400" stop-opacity="0"/></linearGradient><linearGradient id="b" x1="31.575" y1="-9.61" x2="35.785" y2="-9.344" xlink:href="#a"/><linearGradient id="c" y1="0.5" x2="1" y2="0.5" gradientUnits="objectBoundingBox"><stop offset="0" stop-color="#f7c779"/><stop offset="0.13" stop-color="#f2c06d" stop-opacity="0.902"/><stop offset="0.39" stop-color="#e6b04f" stop-opacity="0.651"/><stop offset="0.77" stop-color="#d2951f" stop-opacity="0.251"/><stop offset="1" stop-color="#c68400" stop-opacity="0"/></linearGradient><clipPath id="d"><path class="a" d="M183.082,51.009a1.036,1.036,0,0,0,1.11.946h.444a.963.963,0,0,0,.23-.049c-.518-4.853-.823-7.033-2.2-7.855h0c-.09,0-.148.337-.132.535Z" transform="translate(-182.537 -44.05)"/></clipPath></defs><g transform="translate(0.76 -1)"><path class="b" d="M216.813,70.158a17.355,17.355,0,0,0,1.933-7.978,16.45,16.45,0,0,0-12.535-15.94H185.755a6.58,6.58,0,0,1,0-13.16h25.169c7.658-1.645,13.687-8.077,13.687-16.039V16.99A16.113,16.113,0,0,0,208.571,1H77.067A16.154,16.154,0,0,0,60.929,16.94v.206A27.142,27.142,0,0,0,61.5,20.74H50.368A31.692,31.692,0,0,0,24.368,71,38.543,38.543,0,0,0-.76,107.031v.148A38.658,38.658,0,0,0,37.7,145.764H205.906a38.7,38.7,0,0,0,38.445-38.6v-.058a38.658,38.658,0,0,0-27.538-36.948Z"/><path class="c" d="M239.962,167.957A34.957,34.957,0,0,0,204.988,133H60.184A34.957,34.957,0,0,0,25.21,167.957h0a34.957,34.957,0,0,0,34.974,34.957H174.119l-28.171-28.788,40.682-32.745,49.4,42.705a34.776,34.776,0,0,0,3.94-16.113Z" transform="translate(-4.609 -23.427)"/><path class="d" d="M172,175.931l28.171,28.788h30.877a34.957,34.957,0,0,0,31.025-18.851l-49.4-42.7Z" transform="translate(-30.661 -25.232)"/><path class="e" d="M172.123,60.255l4.7,40.139a6.531,6.531,0,0,0,7.255,5.667h0a6.531,6.531,0,0,0,5.667-7.255l-5.906-39.662c-1.341-9.4-1.061-14.337-3.043-14.888C177.469,43.344,171.021,53.025,172.123,60.255Z" transform="translate(-30.661 -7.667)"/><ellipse class="e" cx="36.363" cy="35.036" rx="36.363" ry="35.036" transform="matrix(0.998, -0.06, 0.06, 0.998, 85.949, 68.791)"/><rect class="d" width="58.251" height="29.561" rx="7.08" transform="translate(122.389 134.045) rotate(-41.98)"/><rect class="f" width="7.148" height="7.148" rx="3.04" transform="translate(133.094 135.961) rotate(10.96)"/><circle class="g" cx="4.549" cy="4.549" r="4.549" transform="translate(106.497 133.006)"/><path class="h" d="M185.4,125.622l6.152-6.152a7.921,7.921,0,0,0-4.516,1.991L155.6,149.747a8.011,8.011,0,0,0-.592,11.277l9.089,10.1a7.97,7.97,0,0,0,6.481,2.6l26.214,26.789h9.41L185.4,179.72a38.362,38.362,0,0,1,0-54.1Z" transform="translate(-27.284 -21.026)"/><rect class="e" width="13.604" height="28.566" rx="6.802" transform="matrix(0.571, -0.821, 0.821, 0.571, 62.562, 46.36)"/><rect class="i" width="13.604" height="27.908" rx="6.802" transform="matrix(0.571, -0.821, 0.821, 0.571, 63.097, 46.744)"/><rect class="e" width="13.604" height="72.135" rx="5.79" transform="matrix(0.537, -0.844, 0.844, 0.537, 49.672, 95.292)"/><rect class="j" width="13.604" height="70.589" rx="6.802" transform="matrix(0.537, -0.844, 0.844, 0.537, 50.887, 96.059)"/><path class="k" d="M174.25,113.624a7.633,7.633,0,0,1,1.925.132V47c-2.468,3.043-5.511,9.188-4.754,14.164l2.147,18.556c-.749-.444-1.505-.864-2.328-1.258v36.15a6,6,0,0,1,3.027-.987Z" transform="translate(-30.526 -8.164)"/><rect class="l" width="65.563" height="110.522" rx="10.64" transform="translate(78.161 34.6)"/><rect class="l" width="65.58" height="110.522" rx="7.83" transform="translate(78.153 15.624)"/><rect class="m" width="65.547" height="104.485" transform="translate(78.136 25.495)"/><rect class="e" width="13.604" height="32.292" rx="6.802" transform="matrix(0.571, -0.821, 0.821, 0.571, 53.585, 64.3)"/><rect class="e" width="13.604" height="32.292" rx="6.802" transform="translate(50.49 82.332) rotate(-68.39)"/><rect class="e" width="13.604" height="28.747" rx="6.802" transform="translate(50.288 97.874) rotate(-79.04)"/><path class="n" d="M92.581,87.392a4.2,4.2,0,0,1-3.241,1.645,5.832,5.832,0,0,0,1.933,2.525c2.32,1.744,5.42,1.546,6.909-.436s.823-5.017-1.5-6.761a5.758,5.758,0,0,0-3.668-1.176,4.335,4.335,0,0,1-.436,4.2Z" transform="translate(-15.991 -14.586)"/><path class="o" d="M89.688,84.755a4.335,4.335,0,0,0-.436,4.236,4.2,4.2,0,0,0,3.241-1.645,4.335,4.335,0,0,0,.436-4.236A4.2,4.2,0,0,0,89.688,84.755Z" transform="translate(-15.911 -14.573)"/><path class="n" d="M90.2,102.5a4.2,4.2,0,0,1-2.723,2.385,5.832,5.832,0,0,0,2.509,1.949c2.69,1.1,5.634.123,6.58-2.18S96.092,99.6,93.4,98.494a5.758,5.758,0,0,0-3.849-.206A4.335,4.335,0,0,1,90.2,102.5Z" transform="translate(-15.661 -17.225)"/><path class="o" d="M86.62,100.725a4.335,4.335,0,0,0,.658,4.211A4.2,4.2,0,0,0,90,102.551a4.335,4.335,0,0,0-.658-4.211A4.2,4.2,0,0,0,86.62,100.725Z" transform="translate(-15.459 -17.276)"/><path class="n" d="M86.961,115.95a4.113,4.113,0,0,1-2.361,2.69,5.758,5.758,0,0,0,2.714,1.579c2.772.724,5.527-.609,6.152-2.986s-1.127-4.886-3.9-5.618a5.651,5.651,0,0,0-3.816.28,4.277,4.277,0,0,1,1.209,4.055Z" transform="translate(-15.15 -19.595)"/><path class="o" d="M82.975,114.663a4.335,4.335,0,0,0,1.2,4.113,4.2,4.2,0,0,0,2.385-2.723,4.335,4.335,0,0,0-1.2-4.113A4.2,4.2,0,0,0,82.975,114.663Z" transform="translate(-14.84 -19.69)"/><rect class="e" width="13.604" height="20.333" rx="6.802" transform="matrix(0.781, -0.625, 0.625, 0.781, 62.693, 43.924)"/><path class="n" d="M89.719,59.043a5.289,5.289,0,0,1-3.356,1.086,3.134,3.134,0,0,0,.518,2.229c1.2,1.645,3.841,1.694,5.9.165s2.755-4.113,1.563-5.692a3.29,3.29,0,0,0-2.525-1.25A5.108,5.108,0,0,1,89.719,59.043Z" transform="translate(-15.457 -9.687)"/><path class="o" d="M88.658,56.882a4.935,4.935,0,0,0-2.048,3.356,5.133,5.133,0,0,0,3.29-1.053,4.935,4.935,0,0,0,2.048-3.356,5.133,5.133,0,0,0-3.29,1.053Z" transform="translate(-15.506 -9.731)"/><g class="p" transform="translate(77.379 24.031)"><line class="q" y2="106.928" transform="translate(13.572)"/><line class="q" y2="106.928" transform="translate(26.732)"/><line class="q" y2="106.928" transform="translate(39.892)"/><line class="q" y2="106.928" transform="translate(53.053)"/><line class="q" x1="65.802" transform="translate(0 0.411)"/><line class="q" x1="65.802" transform="translate(0 13.572)"/><line class="q" x1="65.802" transform="translate(0 26.732)"/><line class="q" x1="65.802" transform="translate(0 39.892)"/><line class="q" x1="65.802" transform="translate(0 53.053)"/><line class="q" x1="65.802" transform="translate(0 66.213)"/><line class="q" x1="65.802" transform="translate(0 79.373)"/><line class="q" x1="65.802" transform="translate(0 92.534)"/></g><path class="r" d="M108.11,120.127l9.311,13.152L130.367,106.8l13.366,12.1,12.65-25.342" transform="translate(-19.322 -16.428)"/><circle class="s" cx="4.203" cy="4.203" r="4.203" transform="translate(86.493 101.866)"/><circle class="s" cx="4.203" cy="4.203" r="4.203" transform="translate(130.909 73.9)"/><path class="t" d="M160.855,90.894,95.44,30.793l65.39-.033Z" transform="translate(-17.074 -5.282)"/><path class="u" d="M22.48,63.657v0Z" transform="translate(-4.125 -11.101)"/><path class="v" d="M183.082,51.009a1.036,1.036,0,0,0,1.11.946h.444a.963.963,0,0,0,.23-.049c-.518-4.853-.823-7.033-2.2-7.855h0c-.09,0-.148.337-.132.535Z" transform="translate(-32.531 -7.64)"/><g class="w" transform="translate(150.005 36.41)"><ellipse class="o" cx="2.566" cy="3.216" rx="2.566" ry="3.216" transform="translate(0.011 6.588)"/></g></g></svg>