<svg xmlns="http://www.w3.org/2000/svg" width="25" height="25" viewBox="0 0 25 25">
  <g id="Instagram" transform="translate(-0.714 -0.714)">
    <g id="_20-sobre" data-name="20-sobre" transform="translate(-1082 -3078)">
      <g id="elementos" transform="translate(0 2736)">
        <g id="social-icons" transform="translate(1035 335)">
          <g id="Instagram-2" data-name="Instagram" transform="translate(40)">
            <path id="Caminho_1252" data-name="Caminho 1252" d="M20.214,7.714c-3.395,0-3.82.014-5.154.075a9.177,9.177,0,0,0-3.034.581A6.392,6.392,0,0,0,8.37,12.026a9.175,9.175,0,0,0-.581,3.034c-.061,1.333-.075,1.759-.075,5.154s.014,3.821.075,5.154A9.175,9.175,0,0,0,8.37,28.4a6.392,6.392,0,0,0,3.656,3.656,9.177,9.177,0,0,0,3.034.581c1.333.061,1.759.075,5.154.075s3.82-.014,5.154-.075a9.177,9.177,0,0,0,3.034-.581A6.392,6.392,0,0,0,32.058,28.4a9.176,9.176,0,0,0,.581-3.034c.061-1.333.075-1.759.075-5.154s-.014-3.82-.075-5.154a9.176,9.176,0,0,0-.581-3.034A6.392,6.392,0,0,0,28.4,8.371a9.178,9.178,0,0,0-3.034-.581c-1.333-.061-1.759-.075-5.154-.075m0,2.252c3.338,0,3.733.013,5.051.073a6.917,6.917,0,0,1,2.321.43,4.14,4.14,0,0,1,2.372,2.372,6.919,6.919,0,0,1,.43,2.321c.06,1.318.073,1.713.073,5.051s-.013,3.733-.073,5.051a6.919,6.919,0,0,1-.43,2.321,4.14,4.14,0,0,1-2.372,2.372,6.917,6.917,0,0,1-2.321.43c-1.318.06-1.713.073-5.051.073s-3.733-.013-5.051-.073a6.917,6.917,0,0,1-2.321-.43,4.14,4.14,0,0,1-2.372-2.372,6.918,6.918,0,0,1-.431-2.321c-.06-1.318-.073-1.713-.073-5.051s.013-3.733.073-5.051a6.918,6.918,0,0,1,.431-2.321,4.139,4.139,0,0,1,2.372-2.372,6.916,6.916,0,0,1,2.321-.43c1.318-.06,1.713-.073,5.051-.073m0,14.415a4.167,4.167,0,1,1,4.167-4.167,4.167,4.167,0,0,1-4.167,4.167m0-10.586a6.419,6.419,0,1,0,6.419,6.419A6.419,6.419,0,0,0,20.214,13.8m8.173-.254a1.5,1.5,0,1,1-1.5-1.5,1.5,1.5,0,0,1,1.5,1.5" fill="#fff" fill-rule="evenodd"/>
          </g>
        </g>
      </g>
    </g>
  </g>
</svg>
