<svg xmlns="http://www.w3.org/2000/svg" width="597.188" height="376.473" viewBox="0 0 597.188 376.473"><defs><style>.a{fill:none;stroke:#d3cfcf;stroke-linecap:round;stroke-linejoin:round;stroke-width:1.28px;}.a,.aa,.c,.d,.e,.f,.h,.i,.j,.k,.m,.p,.q,.r,.s,.x{fill-rule:evenodd;}.b{fill:#0800ff;}.c,.o{fill:#fec1bc;}.d{fill:#7e93a3;}.e{fill:#a5b6c5;}.f{fill:#8fa5b5;}.g,.i{fill:#e89f36;}.h{fill:#fdb947;}.j{fill:#376bb4;}.k,.y{fill:#265d9e;}.l{opacity:0.55;}.m,.n{fill:#dda09e;}.p{fill:#b2423d;}.q{fill:#912a2a;}.r,.v{fill:#efc09a;}.s{fill:#bc845e;}.t{fill:#9f3a3e;}.u{fill:#6d332f;}.w{fill:#636566;}.x{fill:#1d1d5a;}.z{fill:#28435e;}.aa{fill:#ddd;}</style></defs><g transform="translate(-2.64 -0.952)"><path class="a" d="M406.315,104.771s-79.316-13-56.986,68.573c13.867,50.8-60.468,93.647-99.092,60.595-71.253-61.017,76.91-119.5,62.009-188.433-12.03-55.656-89.32-60.827-119.332-1.541-30.35,59.793,7.007,77.226-41.3,108.146S63.24,115.7,63.24,115.7" transform="translate(67.301 0)"/><circle class="b" cx="7.767" cy="7.767" r="7.767" transform="translate(253.356 37.549)"/><path class="c" d="M239.773,148.64l-2.828,26.572L202.5,210.29l43.562-19.8,9.16-36.45Z" transform="translate(221.961 163.305)"/><path class="c" d="M257.42,155.049l17.729,9.793L270.273,200.7l17.581-39.848L271.9,141.33Z" transform="translate(282.954 155.187)"/><path class="d" d="M241.331,101.12,238.84,142.8l32.9,67.117L301.5,187.992l-22.647-43.52,29.421-32.883Z" transform="translate(262.319 110.531)"/><path class="e" d="M265.374,100.705,230,151.528,216.62,212.46,251.086,225l18.932-65.238L329.41,98.51Z" transform="translate(237.642 107.632)"/><path class="f" d="M287.323,98.32l-49.831,67.665s-9.033,43.52-8.759,49.6c.359,8.231,8.907,9.624,8.907,9.624l19-65.217,59.392-61.207Z" transform="translate(251.088 107.421)"/><path class="g" d="M267.115,57.474,234.4,42.7l-.971,18.32S273.763,86.9,277.752,92.89s16.42-9.772,16.42-9.772S278.723,64.608,267.115,57.474Z" transform="translate(256.311 45.65)"/><path class="h" d="M310.816,55.215a6.944,6.944,0,0,0-4.031-7.239c-4.791-2.111-8.8-1.942-10.975.422s.38,12.516-4.918,15.555-4.77,4.01-12.938,6.015.654,6.944-1.984,7.07A41.03,41.03,0,0,0,259.7,81.555c-1.667.76-7.809,4.685-16.589,13.824-2.744,2.849-9.9,12.9-9.751,14.225.57,5.15,20.388,7.535,20.388,7.535a63.32,63.32,0,0,1,6.036-5.7c1.5,5.382-27.712,57.471-27.712,57.471s84.888,10.68,87.336,8.8c8.928-6.838-5.382-47-5.086-66.462,0-6.627-2.744-35.606-2.744-35.606Z" transform="translate(254.801 49.872)"/><path class="i" d="M286.658,111.72c0-6.712-3.44-36.007-3.44-36.007l-1.1-20.62a7.134,7.134,0,0,0-4.369-7.366c-5.108-2.111-9.35-2.111-11.587.253s.591,12.663-4.96,15.618l-.8.443a7.326,7.326,0,0,1,.127,2.322L256.9,79.027c1.878-3.081,11.4,32.376.654,62.6-13.529,38.117,34.445,37.99,36.133,36.809C303.037,171.7,286.658,131.348,286.658,111.72Z" transform="translate(280.436 49.509)"/><path class="j" d="M297.414,56.874c-6.838-8.717-9.076-13.318-18.214-15.808-3.081-.844-10.975-4.728-13.149-4.875a8.991,8.991,0,0,0-8.864,3.82l-1.2,8.7a20.472,20.472,0,0,0-5.635,5.424,34.694,34.694,0,0,0-3.018,7.957l6.648-3.1-.886,6.479-4.474,2.3,15.808,15.027,4.348-3.081a18.573,18.573,0,0,0,7.64,15.956c6.986,5.276,10.553,8.126,19.755,6.036,7.471-1.71,6.669,6.332,19.586,2.111s16-14.774,7.577-25.876c-6.754-8.97-9.033-6.078-17.138-10.954C299.588,63.016,303.851,65.063,297.414,56.874Z" transform="translate(271.748 38.293)"/><path class="k" d="M318.11,77.894c-6.754-8.97-9.033-6.057-17.138-10.933-6.585-3.947-2.343-1.9-8.78-10.11-6.817-8.7-9.075-13.3-18.214-15.787-3.081-.844-10.975-4.728-13.149-4.875a8.949,8.949,0,0,0-8.759,3.926v.3c2.87,1.2,6.1,2.617,7.809,3.081,9.139,2.49,7.661,11.65,14.5,20.367,6.437,8.189,5.91,1.583,12.495,5.551,8.1,4.875,2.237,10.933,9.012,19.9,7.45,9.9,11.271,7.324,4.559,15.238,2.111.76,5.108.992,10.131-.654C323.429,99.591,326.531,89.059,318.11,77.894Z" transform="translate(277.012 38.316)"/><path class="c" d="M261.8,37.94a10.11,10.11,0,0,0-6.142,2.533c-2.955,2.554-3.883,3.8-6.585,6.184a16.885,16.885,0,0,0-5.825,12.115c-.359,6.015.338,11.017,5.994,13.3s6.142,2.533,8.822,7.3,3.525,6.121,3.525,6.121,5.382,6.332,12.431,3.546c2.723-1.076.528-3.25,0-6.8a21.908,21.908,0,0,1-.4-4.622,13.107,13.107,0,0,1-5.445-.633,20.2,20.2,0,0,1-5.213-3.778c-3.4-2.786-4.453-10.553-4.453-10.553s3.5-4.116,0-5.825a3.461,3.461,0,0,0-4.854,1.794l-1.794,1.309s1.393-6.184,4.031-8.928,3.166-2.617,4.622-4.453a9.16,9.16,0,0,0,1.161-6.057A21.1,21.1,0,0,1,261.8,37.94Z" transform="translate(267.132 40.364)"/><g class="l" transform="translate(517.939 111.968)"><path class="m" d="M270.724,66.279a24.4,24.4,0,0,1-1.119-6.332,13.022,13.022,0,0,1-8.59-2.723c-.232-.169-3.145-3.124-3.377-3.335a18.444,18.444,0,0,1-3.694,1.33,53.5,53.5,0,0,1-7.155-.211c.718.549,4.221.38,7.535,6.712a66.2,66.2,0,0,0,3.461,6.1A9.793,9.793,0,0,0,269.078,71.6C271.864,70.627,271.948,70.353,270.724,66.279Z" transform="translate(-246.79 -53.89)"/></g><path class="n" d="M247.7,42.87s-.485.106-1.541,2.111a40.926,40.926,0,0,0-2.111,4.728,3.9,3.9,0,0,1-1.034-3.229C243.538,44.77,246.936,42.976,247.7,42.87Z" transform="translate(266.908 45.839)"/><path class="m" d="M248.53,49.91s1.33-2.575,2.49-2.427,2.385.274,2.111,1.034.3.992-1.351,1.815a3.4,3.4,0,0,1-3.25-.422Z" transform="translate(273.081 50.956)"/><path class="o" d="M209.961,34.955s4.812-4.833,12.663.232c6.226,3.989,21.718,8.231,24.968,9.582s24.9,10.067,24.9,10.067l-1.731,15.027a196.993,196.993,0,0,0-21.549-13.381c-7.661-3.546-20.789-9.012-23.913-10.68s-3.377.549-8.632.612c-4.5,0-7.26-4.559-7.26-4.559s-10.743,8.231-8.991,4.01S209.961,34.955,209.961,34.955Z" transform="translate(219.438 34.738)"/><path class="o" d="M268.388,103.73a55.063,55.063,0,0,1-7.7-1.752c-1.752-.507-5.8-2.237-5.8-2.237s-5.973,6.332-7.661,5.783-11.693-18.045-14.183-22.077,0-5.91-1.541-9.92c-2.111-5.509-6.881-9.561-7.788-9.6s.612,1.773,1.456,4.221.823,3.461-.633,3.482-2.87-3.335-3.166-5.656-1.013-6.923-1.055-7.767-1.161-.823-1.773,1.245a28.83,28.83,0,0,0-1.309,8.991c.127,1.646.7,2.49,0,2.111s-1.6-4.96-2.111-5.086-.422.528-.38,2.765a9.5,9.5,0,0,0,2.111,5.656c1.5,2.6,3.609,4.643,5.319,7.872s10.257,20.536,11.313,23.7,7.767,16.251,13.571,17.011S266.235,108.69,268.388,103.73Z" transform="translate(235.515 62.289)"/><path class="p" d="M282.256,149.26s-6.332,10.279-7.134,15.6-3.419,8.759-6.522,14.985l-5.044,11.186s-4.01,12.495-.359,9.244a70,70,0,0,0,11.967-14.246c3.081-5.044,4.686-11.27,7.619-15.618a75.979,75.979,0,0,0,6.332-12.98Z" transform="translate(287.666 163.994)"/><path class="q" d="M272.2,163.293l2.448,2.807s4.221-4.031,4.559-6.332a18.26,18.26,0,0,0-.19-5.087l-1.625-1.562Z" transform="translate(299.368 168.281)"/><path class="p" d="M248.776,166.2s-11.249,4.221-15.217,7.872-9.519,3.651-15.787,6.627l-11.482,6.458s-8.843,7.767-3.968,7.45a69.649,69.649,0,0,0,18.214-3.841c5.53-2.111,10.553-5.973,15.618-7.6a77.057,77.057,0,0,0,12.98-6.332l.823-4.432Z" transform="translate(220.134 182.807)"/><path class="q" d="M218.82,176l.211,3.715s5.8-.591,7.471-2.111a17.434,17.434,0,0,0,3-4.095l-.317-2.237Z" transform="translate(240.086 188.438)"/><path class="r" d="M78.528,153.908S69.3,177.124,70.613,179.72,91.972,196.6,91.972,196.6L57.38,192.932l5.53-39.552Z" transform="translate(60.793 168.57)"/><path class="r" d="M40.824,149.951,22.567,165.084l15.238,32.777L6.59,165.4l18.446-24.82Z" transform="translate(4.387 154.354)"/><path class="n" d="M77.4,36.12a19.925,19.925,0,0,1,2.87,4.77c.148,1.266.823,4.01.19,4.812s-4.221,1.182-4.221,1.182Z" transform="translate(81.739 38.343)"/><path class="s" d="M85.95,49.7s-3.166,10.68-5.15,12.262-7.915,11.081-7.915,11.081-17.1-3.9-17.1-8.252,9.962-22.224,12.663-25.327S85.95,49.7,85.95,49.7Z" transform="translate(59.027 41.539)"/><path class="r" d="M98.362,42.079s.148,10.131-1.33,13.655-.127,8.928-4.559,12.663S84.031,74.73,77.7,73A13.7,13.7,0,0,1,67.146,63.67c-1.773-4.411-10.553-12.073-7.07-21.8S77.7,23.084,84.875,25.427A18.573,18.573,0,0,1,98.362,42.079Z" transform="translate(62.889 26.052)"/><path class="t" d="M101.436,36.2a24.251,24.251,0,0,1-6.332,7.83c-4.052,3.039-4.052,12.663-9.118,12.663-1.119,0-3.124.485-3.694-.253-1.667-2.111-3.82-3.06-5.4-1.477A8.822,8.822,0,0,0,75.37,61.3a21.547,21.547,0,0,0,1.52,4.432c1.583,5.023-15.238-1.52-15.238-1.52s-3.841-4.39-3.841-14.141S63.994,22.63,63.994,22.63L94.45,28.582Z" transform="translate(61.271 23.361)"/><path class="u" d="M79.646,54.361A34.47,34.47,0,0,1,76.29,50.14c-5.276-8.02-8.864-26.783-8.864-26.783l-3.482-.7S57.78,40.2,57.78,49.95s3.9,14.415,3.9,14.415S78.421,70.845,76.9,65.821a22.711,22.711,0,0,1-1.456-4.432A9.244,9.244,0,0,1,76.9,55.057,2.322,2.322,0,0,1,79.646,54.361Z" transform="translate(61.237 23.394)"/><path class="v" d="M107.64,48.245,113.845,39s.338-5.551,1.034-9.709,1.245-7.408,2.448-7.408.739,7.26.739,7.26,1.583-7.092,6.5-7.809a35.606,35.606,0,0,1,8.843,0c1.9.148,8.864,3.293,8.632,3.9-.971,2.6-12.663-1.878-14.774,2.892-1.119,2.638-1.646,6.543,0,7.83,3.482,2.6,8.7-7.366,9.561-7.2s3.1,4.707-.844,10.067c-2.111,2.744-3.5,5.466-7.514,6.332a10.553,10.553,0,0,0-8,4.791,57.43,57.43,0,0,1-4.517,5.762Z" transform="translate(116.611 21.617)"/><path class="v" d="M46.813,89.819l-6.205,9.223s-.338,5.572-1.034,9.73-1.224,7.408-2.448,7.408-.844-12.051-.844-12.051a31.215,31.215,0,0,1-7.7,10.173,12.452,12.452,0,0,1-7.809,2.976c-1.921-.169-7.809.7-5.087-2.723,1.71-2.111,2.955-4.5,8.442-11.482,1.752-2.258,7.809-12.03,9.73-14.922a58.881,58.881,0,0,1,4.538-5.762Z" transform="translate(13.699 89.729)"/><path class="w" d="M119.443,101.842,135.1,175.755,125.29,245.91l-19.65-2.427-1.52-63.254-12.3-29.865L70.224,180.757,32.171,211.4,12.5,202.833l34.825-35.648L76.978,88.06Z" transform="translate(10.95 96.026)"/><path class="x" d="M200.938,31s-13.128,25.327-32.587,34.846c-17.877,8.738-24.609,10.553-36.492,9.012a146.013,146.013,0,0,1-16.209-2.765l-16.209-.38S76.224,66.9,62.716,73.634s-27.564,31.722-27.564,31.722L21.56,147.694,39.711,149.8l16.23-31.173,6.205-17.349,1.794,66.905,50.232,1.52,17.476-62.98s23.216.169,46.686-17.94c28.957-22.267,37.674-43.2,37.674-43.2Z" transform="translate(21.012 32.657)"/><path class="y" d="M57.555,166.67s.422,5,7.239,6.332c7.978,1.477,10.553.739,11.84-1.14s-1.541-3.229,0-3.1c2.913.274,14.289,5.72,17.1,7.493,5.889,3.715,7.471,6.923,7.218,9.308s-32.018-2.913-32.018-2.913-12.157-.253-12.431-3.968a75.243,75.243,0,0,1,1.055-12.009Z" transform="translate(59.816 183.329)"/><path class="z" d="M59.512,165.966l-.675,5.192s-.781-.844-1.2-1.372A4.221,4.221,0,0,1,57,167.528a1.646,1.646,0,0,1,1.1-1.541,3.188,3.188,0,0,1,1.414-.021Z" transform="translate(60.371 182.471)"/><path class="aa" d="M56.739,171.94,56,177.575a19.544,19.544,0,0,0,8.864,4.474c4.96.8,30.413,2.659,33.178,2.659h2.765l.57-5.087s-15.534-.3-22.668-1.435-15.893-2.111-18.067-3.335S56.633,172.4,56.739,171.94Z" transform="translate(59.261 189.182)"/><path class="y" d="M11.085,149.25s-2.111,4.559,3.229,8.991c6.226,5.192,8.78,5.783,10.891,4.812,1.773-.823.232-3.567,1.435-2.723,2.406,1.646,9.645,11.988,11.207,14.9,3.314,6.142,3.124,9.709,1.71,11.65s-26.446-18.257-26.446-18.257-10.553-6.205-8.864-9.561a73.047,73.047,0,0,1,6.838-9.814Z" transform="translate(1.581 163.983)"/><path class="z" d="M10.637,149.535l-3.124,4.221s-.274-1.14-.38-1.794a3.989,3.989,0,0,1,.549-2.258,1.667,1.667,0,0,1,1.71-.823,3.1,3.1,0,0,1,1.245.654Z" transform="translate(4.983 163.55)"/><path class="aa" d="M6.017,153.51,2.64,158.069a19.164,19.164,0,0,0,5.53,8.252c3.9,3.145,25.179,17.286,27.585,18.636l2.406,1.351,2.976-4.221s-13.381-7.872-19-12.368-12.663-9.73-14.1-11.8S5.679,153.869,6.017,153.51Z" transform="translate(0 168.714)"/><path class="n" d="M71.208,41.128s-1.414-4.052-3.292-2.111.76,4.6.76,4.6l1.034,2.111A5.783,5.783,0,0,0,71.208,41.128Z" transform="translate(71.744 40.975)"/><circle class="b" cx="8.949" cy="8.949" r="8.949" transform="translate(461.164 95.273)"/><circle class="b" cx="9.645" cy="9.645" r="9.645" transform="translate(174.23 146.898)"/><path class="b" d="M7.767,0A7.767,7.767,0,1,1,0,7.767,7.767,7.767,0,0,1,7.767,0Z" transform="translate(369.544 58.697)"/></g></svg>